<?xml version="1.0" standalone="no"?>
<!DOCTYPE svg PUBLIC "-//W3C//DTD SVG 20010904//EN"
 "http://www.w3.org/TR/2001/REC-SVG-20010904/DTD/svg10.dtd">
<svg version="1.0" xmlns="http://www.w3.org/2000/svg"
 width="554.000000pt" height="554.000000pt" viewBox="0 0 554.000000 554.000000"
 preserveAspectRatio="xMidYMid meet">
<metadata>
Created by potrace 1.14, written by Peter Selinger 2001-2017
</metadata>
<g transform="translate(0.000000,554.000000) scale(0.100000,-0.100000)"
fill="#000000" stroke="none">
<path d="M398 4960 c-51 -15 -94 -49 -169 -131 -133 -147 -149 -177 -149 -278
1 -88 35 -153 105 -198 55 -35 58 -38 112 -101 20 -24 52 -51 70 -61 19 -9 51
-39 71 -66 21 -28 57 -61 82 -74 28 -15 55 -40 72 -67 18 -29 45 -54 82 -74
31 -18 56 -36 56 -40 0 -5 11 -22 25 -38 l25 -30 -71 -59 c-121 -98 -135 -151
-81 -320 46 -143 63 -156 260 -195 l62 -12 0 -443 c0 -487 6 -570 61 -782 86
-334 276 -628 564 -873 274 -233 721 -436 1117 -508 60 -11 78 -10 170 10 134
28 317 82 431 127 167 65 423 201 515 273 l24 20 32 -26 c17 -15 105 -95 197
-179 153 -141 169 -153 220 -164 29 -7 72 -16 94 -21 156 -37 519 -110 523
-105 3 3 1 20 -5 38 -10 29 -48 148 -158 497 l-36 116 -170 154 c-93 85 -181
165 -195 177 l-25 23 40 72 c78 142 150 354 180 528 27 158 31 310 31 1156 l0
884 -1345 0 -1345 0 0 23 c0 13 -15 69 -34 126 -51 152 -62 161 -246 197 -154
30 -193 6 -316 -194 -3 -5 -78 45 -94 63 -65 73 -113 115 -134 121 -14 3 -29
18 -36 34 -15 36 -54 73 -107 100 -23 12 -45 30 -48 40 -7 23 -102 110 -120
110 -7 0 -22 15 -33 33 -64 102 -191 151 -304 117z"/>
</g>
</svg>
